<?xml version="1.0" encoding="UTF-8"?>
<svg id="Ebene_1" xmlns="http://www.w3.org/2000/svg" version="1.1" viewBox="0 0 120 118.1">
  <!-- Generator: Adobe Illustrator 29.1.0, SVG Export Plug-In . SVG Version: 2.1.0 Build 142)  -->
  <defs>
    <style>
      .st0 {
        fill: #e94e1b;
      }

      .st1 {
        fill: #fff;
      }
    </style>
  </defs>
  <circle class="st0" cx="60" cy="59.1" r="55.3"/>
  <path class="st1" d="M119.8,18.2v-.9c-.3-1.6-.7-3.1-1.5-4.4-1.3-1.8-3.4-2.9-5.6-3.1-1-.1-2,0-3,.2-1,.2-2,.6-2.9,1.2-1.2.8-2.3,1.6-3.3,2.6-1.1,1-2.2,2.1-3.2,3.1-.6.6-1.1,1.1-1.6,1.6-.2.2-.3.3-.5.5-.5.5-1.1,1.1-1.7,1.5-.4.3-.7.5-1.1.8-.9-.1-1.9-.3-2.8-.5-1.1-.3-2.3-.6-3.5-.9l-.8-.2c-3-.8-6.1-1.5-9.1-2.1-3.2-.5-6.4-.8-9.6-.6-1.9,0-3.9.3-5.8.6-1.3.2-2.5.3-3.8.2-1.2,0-2.5,0-3.7-.2-1.9-.3-3.9-.5-5.8-.6-3.2-.1-6.4.1-9.6.6-3.1.5-6.1,1.2-9.1,2.1l-.8.2c-1.2.3-2.3.6-3.5.9-.9.2-1.9.4-2.8.5-.4-.2-.8-.5-1.1-.8-.5-.4-1.1-.9-1.7-1.4-.2-.2-.3-.3-.5-.5l-1.6-1.6c-1-1-2-2-3.2-3.1-1-.9-2.1-1.8-3.2-2.5-.9-.6-1.9-1-2.9-1.2-1-.2-2-.3-3.1-.2-2.2.2-4.3,1.3-5.6,3.1-.8,1.3-1.3,2.9-1.4,4.4v.9c-1,8.6,1.6,17.2,7,23.9,0,0,0,0,0,0,.4.5.7,1,1.1,1.5.8.9,1.4,1.8,2,2.9.7,1.3,1.1,2.8,1.1,4.3,0,4,.2,8,.8,12,.7,3.9,1.6,7.8,2.8,11.7,1.3,4,3.3,7.7,6,10.9,2.7,3.1,5.9,5.7,9.5,7.8,2.1,1.3,4.4,2.5,7.4,4.1,1.6.8,2.9,2,4,3.4,1.7,2.1,3.8,4,6.2,5.5,3.4,2.2,7.3,3.3,11.3,3.4.1,0,.3,0,.4,0h0s.2,0,.2,0c.1,0,.3,0,.4,0,4,0,7.9-1.2,11.3-3.4,2.3-1.5,4.4-3.3,6.2-5.5,1.1-1.4,2.4-2.5,4-3.4,3-1.5,5.3-2.8,7.4-4.1,3.5-2.1,6.7-4.7,9.5-7.8,2.7-3.2,4.8-6.9,6-10.9,1.2-3.8,2.2-7.7,2.8-11.6.6-4,.9-8,.8-12,0-1.5.4-3,1.1-4.4.6-1,1.2-2,2-2.8.4-.5.8-1,1.1-1.4,0,0,0,0,0,0,5.4-6.7,8-15.3,7.2-23.9Z"/>
  <path class="st0" d="M116,18.7c-.3-2.8-2.8-4.7-5.6-4.4-.3,0-.6,0-.9.2-2.2.6-5.6,4.4-8.8,7.2-1.5,1.6-3.3,2.8-5.3,3.6-6.2,0-18.9-8-35.3-4.7h0s0,0,0,0c0,0,0,0,0,0h0c-16.5-3.4-29.2,4.6-35.4,4.7-2-.8-3.9-2-5.4-3.6-3.2-2.9-6.5-6.6-8.7-7.2-2.7-.8-5.5.7-6.3,3.4,0,.3-.1.6-.2.8-.6,5.2.2,10.5,2.4,15.2.7,1.5,1.4,2.9,2.3,4.3,1.3,2,2.6,3.6,3.9,5.4.2.3.4.5.5.8.1.2.2.4.3.6,1,1.9,1.5,4,1.4,6.1-.2,6.9.6,13.7,2.6,20.3,3.3,12.5,9.9,17.6,23.8,24.6.9.5,1.7,1.1,2.4,1.9.3.3.6.6.9.9,0,0,0,0,0,0,4,4.3,9.5,6.9,15.4,7.2,6-.3,11.6-3,15.6-7.4,0,0,0,0,0,0,.2-.2.4-.4.6-.6.7-.8,1.5-1.4,2.4-1.9,14-7,20.5-12.1,23.8-24.6,2-6.6,2.8-13.5,2.6-20.3,0-1.5.2-3,.7-4.4,0,0,0-.1,0-.2.4-1.1.9-2.1,1.5-3,1.3-1.8,2.5-3.3,3.8-5.3.9-1.4,1.7-2.8,2.3-4.4,2.2-4.8,3-10,2.4-15.2ZM69.3,100.9c-.6.5-1.2,1-1.9,1.4-.1,0-.2.1-.3.2-4.4,2.5-9.8,2.5-14.2,0-.1,0-.2-.1-.3-.2-.7-.4-1.3-.9-1.9-1.4-.2-.2-.3-.5-.1-.8.1-.3.4-.4.7-.4,2.8.3,5.7-.2,8.3-1.5.3-.2.7-.2,1,0,2.6,1.2,5.4,1.8,8.3,1.5.3,0,.6.1.7.4.2.3,0,.6-.1.8ZM112.1,28.3c-.1.8-.3,1.5-.6,2.2-.2.5-.7.7-1.2.5-.1,0-.3-.1-.3-.2-.5-.7-1.4-.9-2.1-.5-.1,0-.3.1-.4.2-3.4,1.7-6.5,4.1-9.1,7-4.3,5.6.8,10.7,1.5,26.4.9,19.9-9.7,21.7-18,19.5-5.7-1.5-9.7-6.5-9.9-12.4,0-.3.2-.5.5-.5.1,0,.2,0,.3,0,2.8,1.9,6.4,2.4,9.6,1.2,5.6-1.9,5.6-6.4,10.1-7.3.6-.1.9-.7.8-1.2,0-.2-.2-.4-.3-.6-3-2.5-9.1-3.6-17-3-.6,0-1.2-.4-1.2-1.1,0,0,0-.2,0-.2.2-1.4.4-2.8.6-4.2.4-2.6.5-5.3.3-7.9-.8-10.5-5.8-14-5.1-11.8h0c0,0,0,0,0,.1.1.5.3.9.4,1.4,0,.4.2.7.3,1.1s.2.8.2,1.1c0,.3.1.6.2.9l.2.9h0c0,.6.2,1.2.2,1.9,0,.5.1,1.1.1,1.6,0,0,0,.2,0,.3,0,.5,0,1.1,0,1.6s0,1,0,1.5c0,.6,0,1.2-.1,1.7s-.1,1.1-.2,1.7-.2,1.1-.2,1.6c0,.2,0,.3,0,.5,0,.2,0,.4-.1.6,0,.2,0,.5-.1.7l-.3,1.3c-.2,1-.5,1.9-.9,2.9-3,8.5-3.3,15.9.6,21.1,3.9,5.1,6.3,4.4,8.9,8.3,2,3-.8,6.8-5.1,8.8-3.5,1.8-7.6,1.9-11.1.1-.3-.2-.3-.5-.2-.7,0,0,0,0,.1-.1,8-7,5.1-11.5-3.1-11.5s-11.2,4.5-3.2,11.5c.2.2.2.5,0,.8,0,0,0,0-.1.1-3.5,1.7-7.6,1.7-11.1-.1-4.2-2-7.1-5.8-5.1-8.8,2.6-3.9,5-3.2,8.9-8.3,3.9-5.2,3.7-12.6.6-21.1-2.6-7.6-2.8-15.7-.5-23.4.6-2.2-4.3,1.3-5.1,11.8-.2,2.6,0,5.3.3,7.9.2,1.4.4,2.8.5,4.2,0,.6-.3,1.2-1,1.3,0,0-.2,0-.2,0-7.9-.6-14,.5-17,3-.4.4-.5,1-.1,1.5.1.2.3.3.6.3,4.5.9,4.5,5.4,10.1,7.3,3.2,1.1,6.8.7,9.6-1.2.2-.2.6,0,.7.1,0,0,0,.2,0,.3-.1,5.9-4.2,11-9.9,12.4-8.3,2.2-18.9.4-18-19.5.7-15.7,5.8-20.8,1.4-26.4-2.5-2.9-5.6-5.3-9.1-7-.1,0-.3-.2-.4-.2-.7-.4-1.6-.2-2.1.5-.3.4-.9.4-1.3,0-.1,0-.2-.2-.2-.3-.3-.7-.5-1.5-.6-2.2,0,0-1.4-9.2,3.3-5.6,1.6,1.2,2.9,2.5,4.2,3.7,2.9,3,7,4.4,11.1,4,6.2-.4,10.1-3.6,15.9-5.3h0s.2,0,.2,0c.1,0,.2,0,.3-.1,0,0,.1,0,.2,0,5.6-1.4,11.4-1.3,17,.2,5.5-1.5,11.4-1.6,17-.2,0,0,.1,0,.2,0,.1,0,.2,0,.3.1h.2c5.7,1.8,9.6,5,15.9,5.4,4.1.4,8.2-1.1,11.1-4,1.3-1.2,2.6-2.5,4.2-3.7,4.8-3.7,3.3,5.6,3.3,5.6ZM77.7,64.8c0-.5.3-1,.8-1.2.7-.2,1.5-.2,2.2,0,.7.3.7,1.2.4,2-.8,1.9-2.8,1.6-3.3-.6,0-.1,0-.3,0-.4ZM42.3,64.8c0,.1,0,.3,0,.4-.5,2.1-2.5,2.5-3.3.6-.4-.8-.3-1.7.4-2,.7-.3,1.5-.3,2.2,0,.5.2.8.6.8,1.2h0Z"/>
  <path class="st0" d="M64.9,40.5c-1.2-2.1,1.2-4.7,2.3-1.6.6,1.9-1,3.6-2.3,1.6Z"/>
  <path class="st0" d="M66.6,49.1c-1-.2-1.5-1.6-1.2-3.1.5-2.1,2.3-1.2,2.5.6s-.3,2.7-1.4,2.5Z"/>
  <path class="st0" d="M67.3,54.6c-.4.6-1.2.8-1.6,0s.2-2.7,1.2-2.2c.6.2.7,1.6.3,2.2Z"/>
  <path class="st0" d="M65.4,33.4c0,.2,0,.4,0,.5-.1.4-.6.5-1.2.4s-.9-.8-.8-1.4c0-.2,0-.3.1-.5.4-1.1,1.8-.3,2,.9Z"/>
  <path class="st0" d="M55.1,40.5c-1.2,2.1-2.9.3-2.3-1.6,1.1-3.1,3.5-.5,2.3,1.6Z"/>
  <path class="st0" d="M53.4,49.1c-1.1.2-1.6-.8-1.4-2.5s2-2.7,2.5-.6c.4,1.5-.2,2.9-1.2,3.1Z"/>
  <path class="st0" d="M54.2,54.7c-.4.7-1.1.5-1.5,0s-.2-1.9.3-2.2c1.1-.4,1.6,1.6,1.2,2.2Z"/>
  <path class="st0" d="M55.9,34.3c-.7,0-1.1,0-1.2-.4,0-.2,0-.4,0-.5.2-1.2,1.6-2.1,2-.9,0,.2,0,.3.1.5,0,.6-.1,1.4-.8,1.4Z"/>
</svg>
